<svg width="450" height="359" viewBox="0 0 450 359" fill="none" xmlns="http://www.w3.org/2000/svg">
<g clip-path="url(#clip0_4588_57)">
<path d="M449.349 22.6249H0.65123C0.478513 22.6249 0.31287 22.5587 0.19074 22.4409C0.0686111 22.323 0 22.1631 0 21.9965C0 21.8298 0.0686111 21.6699 0.19074 21.5521C0.31287 21.4342 0.478513 21.368 0.65123 21.368H449.349C449.521 21.368 449.687 21.4342 449.809 21.5521C449.931 21.6699 450 21.8298 450 21.9965C450 22.1631 449.931 22.323 449.809 22.4409C449.687 22.5587 449.521 22.6249 449.349 22.6249Z" fill="#CACACA"/>
<path d="M15.309 13.8263C19.2653 13.8263 22.4726 10.7312 22.4726 6.91317C22.4726 3.09513 19.2653 0 15.309 0C11.3527 0 8.14551 3.09513 8.14551 6.91317C8.14551 10.7312 11.3527 13.8263 15.309 13.8263Z" fill="#3F3D56"/>
<path d="M40.0557 13.8263C44.0121 13.8263 47.2193 10.7312 47.2193 6.91317C47.2193 3.09513 44.0121 0 40.0557 0C36.0994 0 32.8922 3.09513 32.8922 6.91317C32.8922 10.7312 36.0994 13.8263 40.0557 13.8263Z" fill="#3F3D56"/>
<path d="M64.8026 13.8263C68.7589 13.8263 71.9661 10.7312 71.9661 6.91317C71.9661 3.09513 68.7589 0 64.8026 0C60.8463 0 57.639 3.09513 57.639 6.91317C57.639 10.7312 60.8463 13.8263 64.8026 13.8263Z" fill="#3F3D56"/>
<path d="M281.861 86.6124H168.139C166.718 86.6124 165.356 86.0678 164.351 85.0984C163.347 84.129 162.782 82.8141 162.782 81.4431C162.782 80.0722 163.347 78.7573 164.351 77.7879C165.356 76.8185 166.718 76.2739 168.139 76.2739H281.861C283.282 76.2739 284.644 76.8185 285.649 77.7879C286.653 78.7573 287.218 80.0722 287.218 81.4431C287.218 82.8141 286.653 84.129 285.649 85.0984C284.644 86.0678 283.282 86.6124 281.861 86.6124Z" fill="#E4E4E4"/>
<path d="M263.525 68.9176H186.474C185.055 68.9161 183.694 68.3708 182.691 67.4015C181.687 66.4323 181.124 65.1183 181.124 63.7483C181.124 62.3783 181.687 61.0643 182.691 60.0951C183.694 59.1258 185.055 58.5805 186.474 58.579H263.525C264.946 58.579 266.309 59.1236 267.313 60.0931C268.318 61.0625 268.882 62.3773 268.882 63.7483C268.882 65.1193 268.318 66.4341 267.313 67.4035C266.309 68.373 264.946 68.9176 263.525 68.9176Z" fill="#E4E4E4"/>
<path d="M80.5782 232.678C106.834 232.678 128.118 212.137 128.118 186.799C128.118 161.461 106.834 140.921 80.5782 140.921C54.3227 140.921 33.0384 161.461 33.0384 186.799C33.0384 212.137 54.3227 232.678 80.5782 232.678Z" fill="#F0F0F0"/>
<path d="M387.959 232.678C414.214 232.678 435.499 212.137 435.499 186.799C435.499 161.461 414.214 140.921 387.959 140.921C361.703 140.921 340.419 161.461 340.419 186.799C340.419 212.137 361.703 232.678 387.959 232.678Z" fill="#F0F0F0"/>
<path d="M225.151 232.678C251.407 232.678 272.691 212.137 272.691 186.799C272.691 161.461 251.407 140.921 225.151 140.921C198.896 140.921 177.611 161.461 177.611 186.799C177.611 212.137 198.896 232.678 225.151 232.678Z" fill="#F0F0F0"/>
<path d="M411.064 206.683C407.318 204.778 403.408 203.19 399.377 201.937L398.863 196.45L378.02 194.283L375.371 201.296L367.891 204.005C367.623 204.103 367.368 204.231 367.131 204.386H367.123C365.899 204.487 364.719 204.88 363.692 205.531C362.995 205.96 362.376 206.496 361.858 207.118C362.87 207.859 363.921 208.545 365.004 209.202L365.052 209.224C365.36 209.408 365.677 209.591 365.993 209.766C366.562 210.094 367.147 210.407 367.733 210.705L368.104 210.888C368.958 211.315 369.828 211.72 370.721 212.094C370.903 212.17 371.101 212.246 371.283 212.323C371.299 212.33 371.307 212.33 371.322 212.338C371.742 212.506 372.16 212.666 372.587 212.819C373.99 213.335 375.421 213.779 376.873 214.146C380.58 215.1 384.399 215.582 388.236 215.581C389.635 215.581 391.019 215.52 392.387 215.39C395.513 215.112 398.598 214.511 401.591 213.597C401.598 213.597 401.607 213.589 401.615 213.589C403.505 213.008 405.352 212.302 407.142 211.476C407.149 211.468 407.165 211.468 407.174 211.46C407.577 211.277 407.964 211.079 408.359 210.888L408.549 210.796C408.866 210.636 409.182 210.476 409.499 210.308C410.289 209.888 411.064 209.446 411.83 208.973C412.044 208.851 412.25 208.721 412.463 208.583C412.764 208.393 413.064 208.194 413.357 207.988C412.622 207.53 411.855 207.095 411.064 206.683Z" fill="#C004C3"/>
<path d="M387.623 190.815C395.914 190.815 402.635 184.329 402.635 176.328C402.635 168.327 395.914 161.841 387.623 161.841C379.333 161.841 372.612 168.327 372.612 176.328C372.612 184.329 379.333 190.815 387.623 190.815Z" fill="#A0616A"/>
<path d="M377.545 169.272C379.099 171.046 381.729 171.547 384.155 171.752C389.081 172.169 396.245 171.493 401.06 170.42C401.404 173.634 400.467 177.1 402.428 179.744C403.348 176.543 403.883 173.251 404.022 169.932C404.168 168.508 403.976 167.07 403.459 165.729C403.182 165.057 402.716 164.473 402.113 164.044C401.51 163.615 400.794 163.358 400.047 163.301C401.165 162.483 402.475 161.942 403.861 161.728L399.095 159.416L400.319 158.203L391.689 157.694L394.189 156.161C390.427 155.663 386.621 155.547 382.834 155.815C381.076 155.941 379.237 156.179 377.813 157.163C376.388 158.146 375.564 160.1 376.449 161.544C375.342 161.719 374.299 162.165 373.42 162.838C372.541 163.511 371.854 164.39 371.425 165.39C370.883 166.981 370.752 168.676 371.044 170.327C371.369 172.975 372.007 175.579 372.945 178.088L377.545 169.272Z" fill="#2F2E41"/>
<path d="M227.788 161.959C231.294 161.959 234.135 159.217 234.135 155.834C234.135 152.451 231.294 149.709 227.788 149.709C224.283 149.709 221.441 152.451 221.441 155.834C221.441 159.217 224.283 161.959 227.788 161.959Z" fill="#2F2E41"/>
<path d="M222.282 159.021C221.479 158.297 220.885 157.385 220.557 156.373C220.23 155.361 220.18 154.284 220.412 153.248C220.645 152.212 221.152 151.252 221.885 150.462C222.617 149.671 223.549 149.078 224.59 148.74C223.718 148.863 222.882 149.16 222.136 149.611C221.389 150.063 220.748 150.661 220.254 151.365C219.76 152.069 219.423 152.865 219.265 153.701C219.107 154.538 219.131 155.397 219.336 156.224C219.542 157.052 219.923 157.828 220.456 158.505C220.99 159.182 221.663 159.745 222.434 160.157C223.206 160.569 224.057 160.821 224.935 160.898C225.812 160.975 226.697 160.874 227.532 160.603C226.59 160.737 225.629 160.665 224.72 160.391C223.81 160.117 222.977 159.648 222.282 159.02L222.282 159.021Z" fill="#2F2E41"/>
<path d="M227.916 195.082C238.214 195.082 246.561 187.026 246.561 177.088C246.561 167.151 238.214 159.095 227.916 159.095C217.619 159.095 209.271 167.151 209.271 177.088C209.271 187.026 217.619 195.082 227.916 195.082Z" fill="#2F2E41"/>
<path d="M211.329 167.181C214.542 163.695 219.033 161.549 223.854 161.197C228.675 160.845 233.449 162.314 237.169 165.294C237.017 165.154 236.865 165.013 236.708 164.878C233.024 161.694 228.181 160.052 223.244 160.313C218.306 160.575 213.679 162.719 210.379 166.274C207.08 169.828 205.378 174.502 205.65 179.267C205.921 184.032 208.142 188.498 211.826 191.682C211.861 191.713 211.896 191.743 211.932 191.773C212.09 191.909 212.253 192.037 212.415 192.167C208.912 188.951 206.841 184.548 206.638 179.886C206.436 175.224 208.118 170.669 211.33 167.181H211.329Z" fill="#2F2E41"/>
<path d="M227.758 194.929C234.39 194.929 239.767 189.741 239.767 183.341C239.767 176.94 234.39 171.752 227.758 171.752C221.126 171.752 215.75 176.94 215.75 183.341C215.75 189.741 221.126 194.929 227.758 194.929Z" fill="#A0616A"/>
<path d="M249.247 213.535V217.423C248.509 217.878 247.764 218.304 247.004 218.707C246.7 218.869 246.396 219.023 246.092 219.177L245.909 219.265C245.529 219.448 245.157 219.639 244.769 219.815C244.762 219.822 244.746 219.822 244.739 219.83C243.018 220.624 241.242 221.303 239.424 221.862C239.417 221.862 239.41 221.869 239.402 221.869C236.525 222.748 233.558 223.326 230.553 223.593C229.238 223.718 227.907 223.777 226.562 223.777C222.874 223.778 219.201 223.314 215.638 222.397C213.82 221.936 212.037 221.355 210.301 220.659C210.286 220.651 210.278 220.651 210.263 220.644C210.088 220.571 209.898 220.497 209.723 220.424C208.864 220.064 208.028 219.676 207.207 219.265L206.849 219.089C205.975 218.641 205.116 218.172 204.272 217.665L204.227 217.643C202.927 216.862 201.674 216.012 200.471 215.098C199.855 214.643 199.263 214.166 198.685 213.667C198.381 213.418 198.077 213.153 197.788 212.897C196.677 211.907 195.624 210.859 194.633 209.757C194.764 208.993 194.957 208.239 195.211 207.504L195.218 207.497C195.263 207.372 195.317 207.249 195.378 207.13C195.42 207.025 195.468 206.922 195.522 206.822C196.883 204.364 199.346 203.755 202.402 203.623C204.128 203.55 206.036 203.631 208.051 203.609C209.115 203.601 210.217 203.565 211.319 203.469C218.275 202.86 217.014 198.899 217.325 196.764C217.637 194.695 219.568 196.485 219.697 196.602L219.705 196.61C223.641 198.388 227.996 199.124 232.324 198.745C233.069 198.657 233.814 198.605 234.559 198.583C236.521 198.561 236.095 199.104 235.419 199.552C235.09 199.76 234.747 199.947 234.392 200.109C234.392 200.109 234.08 201.943 233.761 204.687C233.457 207.314 243.043 208.223 244.921 208.796H244.929C246.001 209.176 246.957 209.809 247.711 210.636C248.465 211.464 248.993 212.46 249.247 213.535V213.535Z" fill="#C004C3"/>
<path d="M215.592 182.578C216.115 182.578 216.54 181.827 216.54 180.901C216.54 179.975 216.115 179.224 215.592 179.224C215.068 179.224 214.644 179.975 214.644 180.901C214.644 181.827 215.068 182.578 215.592 182.578Z" fill="#A0616A"/>
<path d="M239.925 182.578C240.449 182.578 240.873 181.827 240.873 180.901C240.873 179.975 240.449 179.224 239.925 179.224C239.402 179.224 238.977 179.975 238.977 180.901C238.977 181.827 239.402 182.578 239.925 182.578Z" fill="#A0616A"/>
<path d="M65.3685 190.012L67.6498 197.638L96.8027 197.142L96.5473 183.169C96.3451 172.108 88.2453 162.569 76.7846 162.764C65.3239 162.959 58.0366 172.309 58.2388 183.37L59.9037 197.77L64.6569 197.689L65.3685 190.012Z" fill="#2F2E41"/>
<path d="M78.0874 195.345C85.3114 195.345 91.1675 189.693 91.1675 182.722C91.1675 175.75 85.3114 170.099 78.0874 170.099C70.8634 170.099 65.0072 175.75 65.0072 182.722C65.0072 189.693 70.8634 195.345 78.0874 195.345Z" fill="#FFB6B6"/>
<path d="M92.4062 173.858C92.3889 172.891 92.0754 171.951 91.5053 171.157C91.445 171.075 91.3845 170.999 91.324 170.923C90.8394 170.326 90.2183 169.846 89.5093 169.519C88.8003 169.192 88.0225 169.027 87.2368 169.039L77.8356 169.202L68.4403 169.36C67.0943 169.386 65.8138 169.925 64.879 170.86C63.9442 171.795 63.4313 173.049 63.4524 174.348L65.6895 178.695L66.9772 181.192L67.1889 181.075C75.3204 176.664 78.6456 176.606 89.4075 180.708L89.6251 180.789L90.4777 178.683L92.4122 173.905L92.4062 173.858Z" fill="#2F2E41"/>
<path d="M104.123 202.407C101.318 199.705 91.8258 200.779 91.8258 200.779L66.7719 202.302C61.2154 202.698 56.2094 206.993 54.3958 208.731C54.6857 209.006 54.9822 209.274 55.2849 209.531C60.8525 214.306 67.8511 217.247 75.2667 217.927C82.6822 218.607 90.1294 216.99 96.5292 213.312C99.2137 211.765 102.648 209.912 104.801 207.747C105.653 206.895 106.335 206.912 107.091 205.979C106.525 204.511 105.485 203.258 104.123 202.407V202.407Z" fill="#C004C3"/>
<path d="M80.5782 359C106.834 359 128.118 338.46 128.118 313.122C128.118 287.784 106.834 267.243 80.5782 267.243C54.3227 267.243 33.0384 287.784 33.0384 313.122C33.0384 338.46 54.3227 359 80.5782 359Z" fill="#F0F0F0"/>
<path d="M387.959 359C414.214 359 435.499 338.46 435.499 313.122C435.499 287.784 414.214 267.243 387.959 267.243C361.703 267.243 340.419 287.784 340.419 313.122C340.419 338.46 361.703 359 387.959 359Z" fill="#F0F0F0"/>
<path d="M225.151 359C251.407 359 272.691 338.46 272.691 313.122C272.691 287.784 251.407 267.243 225.151 267.243C198.896 267.243 177.611 287.784 177.611 313.122C177.611 338.46 198.896 359 225.151 359Z" fill="#F0F0F0"/>
<path d="M79.8 319.703C87.0585 319.703 92.9427 314.024 92.9427 307.019C92.9427 300.014 87.0585 294.336 79.8 294.336C72.5414 294.336 66.6572 300.014 66.6572 307.019C66.6572 314.024 72.5414 319.703 79.8 319.703Z" fill="#FFB8B8"/>
<path d="M67.3662 310.987C67.3662 310.987 68.4828 309.095 68.2232 302.773C67.9636 296.451 77.9394 300.026 86.2752 299.423C94.611 298.82 92.8464 309.978 92.8464 309.978C92.8464 309.978 93.4478 309.315 94.7353 303.93C96.0229 298.545 93.0995 293.178 93.0995 293.178C92.2385 287.519 87.5983 289.333 87.5983 289.333C89.833 290.172 89.4038 291.967 89.4038 291.967C87.5122 288.767 82.8721 290.581 82.8721 290.581C76.6835 286.833 70.4115 291.768 70.4115 291.768C62.9354 293.406 67.3198 299.143 67.3198 299.143C59.8013 302.81 67.3662 310.987 67.3662 310.987Z" fill="#2F2E41"/>
<path d="M101.73 336.787C97.9835 334.881 94.0732 333.293 90.0428 332.04L89.5284 326.554L68.6854 324.387L66.0365 331.399L58.5565 334.108C58.2887 334.206 58.0338 334.334 57.797 334.49H57.7889C56.5643 334.59 55.3849 334.983 54.3576 335.634C53.6608 336.064 53.0413 336.6 52.5234 337.222C53.5354 337.962 54.5866 338.648 55.67 339.305L55.7177 339.328C56.0261 339.511 56.3426 339.694 56.6584 339.869C57.228 340.198 57.8131 340.51 58.3983 340.808L58.7699 340.991C59.6237 341.418 60.4937 341.823 61.3872 342.197C61.569 342.273 61.7669 342.349 61.9487 342.426C61.9642 342.433 61.9723 342.433 61.9878 342.441C62.4072 342.609 62.8261 342.769 63.253 342.922C64.6557 343.439 66.0863 343.882 67.5387 344.249C71.2454 345.203 75.0651 345.685 78.9012 345.684C80.301 345.684 81.6847 345.623 83.0529 345.493C86.1784 345.215 89.264 344.614 92.2567 343.7C92.2641 343.7 92.2728 343.692 92.2802 343.692C94.1708 343.111 96.0176 342.405 97.8076 341.579C97.815 341.571 97.8312 341.571 97.8392 341.563C98.2426 341.38 98.6297 341.182 99.025 340.991L99.2149 340.9C99.5313 340.739 99.8478 340.579 100.164 340.411C100.955 339.992 101.73 339.549 102.496 339.076C102.709 338.954 102.915 338.824 103.129 338.687C103.429 338.496 103.73 338.298 104.022 338.091C103.287 337.634 102.52 337.199 101.73 336.787Z" fill="#C004C3"/>
<path d="M243.227 334.103L235.314 333.409L230.579 330.072C230.58 330.066 230.578 330.06 230.573 330.055L230.561 330.06L230.372 329.925L230.347 330.137L222.356 333.103L214.146 331.275L211.305 334.241L198.653 338.291C198.044 338.682 197.509 339.17 197.07 339.735L197.071 339.743C197.602 340.144 198.148 340.54 198.701 340.915C199.955 341.789 201.259 342.596 202.605 343.332C205.881 345.135 209.384 346.524 213.028 347.465C213.358 347.553 213.687 347.636 214.017 347.712C214.592 347.848 215.172 347.978 215.752 348.084C216.925 348.32 218.112 348.504 219.314 348.638C221.08 348.845 222.857 348.947 224.635 348.945C225.851 348.945 227.055 348.899 228.246 348.809C230.339 348.646 232.417 348.341 234.465 347.895C234.538 347.877 234.612 347.866 234.685 347.842C237.822 347.148 240.87 346.124 243.775 344.788C244.221 344.582 244.667 344.369 245.107 344.151C246.189 343.615 247.24 343.037 248.26 342.418C249.029 341.958 249.781 341.469 250.514 340.962C250.966 340.649 251.412 340.331 251.852 340.001L251.804 339.903C251.023 338.298 249.821 336.918 248.316 335.901C246.811 334.883 245.057 334.264 243.227 334.103Z" fill="#C004C3"/>
<path d="M235.669 295.995C234.745 295.112 233.704 294.353 232.571 293.737C225.576 290.011 217.934 289.946 211.604 293.554C210.031 294.449 208.594 295.55 207.334 296.826C203.783 300.403 201.794 305.162 201.78 310.115V324.807H241.601V308.612C241.601 304.272 239.126 299.249 235.669 295.995Z" fill="#2F2E41"/>
<path d="M220.904 324.406C228.846 324.406 235.285 318.192 235.285 310.527C235.285 302.862 228.846 296.648 220.904 296.648C212.961 296.648 206.522 302.862 206.522 310.527C206.522 318.192 212.961 324.406 220.904 324.406Z" fill="#FFB8B8"/>
<path d="M235.656 297.929C235.627 297.633 235.518 297.351 235.342 297.108C235.165 296.865 234.926 296.67 234.648 296.543C225.649 292.487 216.522 292.593 207.535 296.862H207.371L207.315 297.08C205.544 310.251 205.794 310.54 205.904 310.658C206.077 310.848 206.292 310.999 206.534 311.1C206.755 311.194 206.994 311.242 207.236 311.241H227.751L227.8 311.017C228.038 309.838 228.344 308.673 228.716 307.527C229.534 308.678 230.286 309.871 230.97 311.1L231.056 311.241H235.045C235.121 311.241 235.197 311.235 235.271 311.224C235.683 311.176 236.063 310.985 236.341 310.687C236.45 310.575 236.707 310.304 235.656 297.929Z" fill="#2F2E41"/>
<path d="M398.713 332.322L398.194 326.771L377.081 324.576L374.408 331.678L366.828 334.419C366.553 334.517 366.292 334.647 366.048 334.804C364.535 334.937 363.096 335.501 361.916 336.425C362.089 336.563 362.261 336.695 362.434 336.827C362.47 336.861 362.511 336.89 362.547 336.919C363.029 337.281 363.524 337.637 364.024 337.976C364.155 338.068 364.286 338.16 364.423 338.246C365.521 338.997 366.657 339.693 367.828 340.332C368.948 340.947 370.097 341.514 371.276 342.033C373.441 342.988 375.686 343.766 377.986 344.36C378.308 344.446 378.629 344.527 378.951 344.601C379.51 344.733 380.076 344.86 380.642 344.963C381.785 345.193 382.942 345.373 384.113 345.503C385.834 345.705 387.566 345.805 389.299 345.802C390.484 345.802 391.657 345.758 392.818 345.67C394.858 345.511 396.883 345.214 398.879 344.779C398.951 344.762 399.022 344.751 399.094 344.728C402.151 344.051 405.122 343.053 407.953 341.751C408.388 341.55 408.823 341.343 409.251 341.131C410.305 340.608 411.329 340.045 412.323 339.441C412.681 339.229 413.032 339.01 413.383 338.781C407.983 335.275 400.141 332.764 398.713 332.322Z" fill="#C004C3"/>
<path d="M386.813 321.061C395.21 321.061 402.017 314.492 402.017 306.389C402.017 298.285 395.21 291.716 386.813 291.716C378.416 291.716 371.609 298.285 371.609 306.389C371.609 314.492 378.416 321.061 386.813 321.061Z" fill="#A0616A"/>
<path d="M376.608 299.241C378.182 301.038 380.845 301.545 383.302 301.751C388.292 302.174 395.547 301.489 400.424 300.402C400.774 303.657 399.824 307.167 401.81 309.846C402.741 306.604 403.283 303.269 403.424 299.907C403.572 298.465 403.377 297.009 402.853 295.651C402.573 294.97 402.101 294.379 401.49 293.944C400.879 293.509 400.154 293.249 399.398 293.192C399.565 293.026 399.68 292.818 399.729 292.591C399.778 292.365 399.76 292.129 399.676 291.912C399.493 291.146 399.088 290.446 398.51 289.893C397.931 289.34 397.202 288.956 396.407 288.786L390.934 287.513C390.934 287.513 385.798 285.339 381.961 285.612C380.18 285.739 378.318 285.981 376.875 286.977C375.432 287.973 374.598 289.952 375.494 291.414C374.373 291.592 373.317 292.043 372.426 292.725C371.536 293.406 370.841 294.296 370.407 295.31C369.857 296.921 369.725 298.637 370.02 300.309C370.35 302.992 370.995 305.629 371.946 308.17L376.608 299.241Z" fill="#2F2E41"/>
<path d="M240.731 174.472C240.27 173.046 239.241 171.855 237.871 171.16C236.512 170.479 235.06 169.987 233.558 169.697C230.932 168.968 228.211 168.608 225.479 168.63C222.755 168.759 219.97 169.666 218.119 171.6C216.268 173.534 215.582 176.604 216.93 178.892L216.781 179.484C218.942 179.732 221.131 179.37 223.084 178.442C225.037 177.514 226.668 176.059 227.782 174.254C228.804 175.812 230.255 177.063 231.973 177.869C233.691 178.675 235.608 179.002 237.508 178.815C238.115 178.768 238.705 178.604 239.245 178.333C239.885 177.925 240.374 177.331 240.642 176.637C240.909 175.943 240.94 175.185 240.731 174.472V174.472Z" fill="#2F2E41"/>
<path d="M434.522 4.22856H416.939C416.593 4.22856 416.262 4.09614 416.018 3.86042C415.773 3.62469 415.636 3.30499 415.636 2.97162C415.636 2.63826 415.773 2.31855 416.018 2.08283C416.262 1.84711 416.593 1.71468 416.939 1.71468H434.522C434.867 1.71468 435.199 1.84711 435.443 2.08283C435.687 2.31855 435.824 2.63826 435.824 2.97162C435.824 3.30499 435.687 3.62469 435.443 3.86042C435.199 4.09614 434.867 4.22856 434.522 4.22856Z" fill="#3F3D56"/>
<path d="M434.522 8.94209H416.939C416.593 8.94209 416.262 8.80966 416.018 8.57394C415.773 8.33822 415.636 8.01851 415.636 7.68515C415.636 7.35179 415.773 7.03208 416.018 6.79636C416.262 6.56063 416.593 6.42821 416.939 6.42821H434.522C434.867 6.42821 435.199 6.56063 435.443 6.79636C435.687 7.03208 435.824 7.35179 435.824 7.68515C435.824 8.01851 435.687 8.33822 435.443 8.57394C435.199 8.80966 434.867 8.94209 434.522 8.94209Z" fill="#3F3D56"/>
<path d="M434.522 13.6556H416.939C416.593 13.6556 416.262 13.5232 416.018 13.2875C415.773 13.0517 415.636 12.732 415.636 12.3987C415.636 12.0653 415.773 11.7456 416.018 11.5099C416.262 11.2742 416.593 11.1417 416.939 11.1417H434.522C434.867 11.1417 435.199 11.2742 435.443 11.5099C435.687 11.7456 435.824 12.0653 435.824 12.3987C435.824 12.732 435.687 13.0517 435.443 13.2875C435.199 13.5232 434.867 13.6556 434.522 13.6556Z" fill="#3F3D56"/>
</g>
<defs>
<clipPath id="clip0_4588_57">
<rect width="450" height="359" fill="white"/>
</clipPath>
</defs>
</svg>
